<svg width="24" height="24" viewBox="0 0 24 24" fill="none" xmlns="http://www.w3.org/2000/svg">
<path d="M12.0001 2.24997C10.0718 2.24997 8.1867 2.8218 6.58332 3.89314C4.97994 4.96448 3.73026 6.48723 2.9923 8.26881C2.25435 10.0504 2.06126 12.0108 2.43747 13.9021C2.81368 15.7934 3.74227 17.5307 5.10584 18.8943C6.4694 20.2578 8.20668 21.1864 10.098 21.5626C11.9893 21.9388 13.9497 21.7457 15.7313 21.0078C17.5129 20.2698 19.0356 19.0202 20.107 17.4168C21.1783 15.8134 21.7501 13.9283 21.7501 12C21.7472 9.41501 20.719 6.93676 18.8912 5.10891C17.0633 3.28106 14.5851 2.2529 12.0001 2.24997V2.24997ZM12.0002 18C11.7777 18 11.5602 17.934 11.3752 17.8104C11.1902 17.6868 11.046 17.5111 10.9608 17.3055C10.8757 17.1 10.8534 16.8738 10.8968 16.6555C10.9402 16.4373 11.0473 16.2368 11.2047 16.0795C11.362 15.9222 11.5625 15.815 11.7807 15.7716C11.9989 15.7282 12.2251 15.7505 12.4307 15.8356C12.6363 15.9208 12.812 16.065 12.9356 16.25C13.0592 16.435 13.1252 16.6525 13.1252 16.875C13.1252 17.1734 13.0067 17.4595 12.7957 17.6705C12.5847 17.8815 12.2985 18 12.0002 18ZM12.7501 13.4165V13.5004C12.7501 13.6993 12.6711 13.8901 12.5305 14.0308C12.3898 14.1714 12.199 14.2504 12.0001 14.2504C11.8012 14.2504 11.6105 14.1714 11.4698 14.0308C11.3291 13.8901 11.2501 13.6993 11.2501 13.5004V12.7504C11.2501 12.5515 11.3292 12.3608 11.4698 12.2201C11.6105 12.0795 11.8012 12.0004 12.0001 12.0004C12.371 12.0004 12.7335 11.8905 13.0418 11.6844C13.3502 11.4784 13.5905 11.1856 13.7324 10.843C13.8743 10.5003 13.9115 10.1233 13.8391 9.75963C13.7668 9.39592 13.5882 9.06183 13.326 8.7996C13.0637 8.53738 12.7296 8.3588 12.3659 8.28645C12.0022 8.21411 11.6252 8.25124 11.2826 8.39315C10.94 8.53507 10.6472 8.77539 10.4411 9.08373C10.2351 9.39208 10.1251 9.75459 10.1251 10.1254C10.1251 10.3243 10.0461 10.5151 9.90546 10.6558C9.76481 10.7964 9.57404 10.8754 9.37513 10.8754C9.17622 10.8754 8.98545 10.7964 8.8448 10.6558C8.70415 10.5151 8.62513 10.3243 8.62513 10.1254C8.62521 9.49011 8.80462 8.86771 9.14271 8.32982C9.4808 7.79193 9.96385 7.36039 10.5363 7.08484C11.1088 6.80928 11.7474 6.7009 12.3787 6.77216C13.01 6.84341 13.6084 7.09141 14.105 7.48764C14.6016 7.88386 14.9763 8.41221 15.186 9.01193C15.3957 9.61165 15.4318 10.2584 15.2903 10.8777C15.1488 11.4971 14.8353 12.0639 14.3859 12.513C13.9366 12.9621 13.3696 13.2753 12.7501 13.4165Z" stroke="black"/>
</svg>
